<svg viewBox="0 0 303 293" fill="none" stroke="white" xmlns="http://www.w3.org/2000/svg">
<g opacity="0.12">
<path d="M38.7837 19.3918L19.3919 19.3918M19.3919 19.3918L0.000187768 19.3918M19.3919 19.3918L19.3919 38.7835M19.3919 19.3918L19.3919 8.4764e-07" stroke-width="2.5"/>
</g>
<g opacity="0.12">
<path d="M38.7837 70.175L19.3919 70.175M19.3919 70.175L0.000187768 70.175M19.3919 70.175L19.3919 89.5667M19.3919 70.175L19.3919 50.7832" stroke-width="2.5"/>
</g>
<g opacity="0.12">
<path d="M19.3919 140.351V120.959M19.3919 120.959V101.567M19.3919 120.959H0.000187337M19.3919 120.959L38.7837 120.959" stroke-width="2.5"/>
<path d="M72.1751 140.351V120.959M72.1751 120.959V101.567M72.1751 120.959H52.7834M72.1751 120.959L91.5669 120.959" stroke-width="2.5"/>
</g>
<g opacity="0.12">
<path d="M19.3919 191.134V171.743M19.3919 171.743V152.351M19.3919 171.743H0.000187337M19.3919 171.743L38.7837 171.743" stroke-width="2.5"/>
<path d="M72.1751 191.134V171.743M72.1751 171.743V152.351M72.1751 171.743H52.7834M72.1751 171.743L91.5669 171.743" stroke-width="2.5"/>
<path d="M124.959 191.134V171.743M124.959 171.743V152.351M124.959 171.743H105.567M124.959 171.743L144.351 171.743" stroke-width="2.5"/>
</g>
<g opacity="0.12">
<path d="M19.3919 241.917V222.526M19.3919 222.526V203.134M19.3919 222.526H0.000187337M19.3919 222.526L38.7837 222.526" stroke-width="2.5"/>
<path d="M72.1751 241.917V222.526M72.1751 222.526V203.134M72.1751 222.526H52.7834M72.1751 222.526L91.5669 222.526" stroke-width="2.5"/>
<path d="M124.959 241.917V222.526M124.959 222.526V203.134M124.959 222.526H105.567M124.959 222.526L144.351 222.526" stroke-width="2.5"/>
<path d="M177.742 241.917V222.526M177.742 222.526V203.134M177.742 222.526H158.35M177.742 222.526L197.134 222.526" stroke-width="2.5"/>
</g>
<g opacity="0.12">
<path d="M19.3919 292.701V273.309M19.3919 273.309V253.918M19.3919 273.309H0.000187337M19.3919 273.309L38.7837 273.309" stroke-width="2.5"/>
<path d="M72.1751 292.701V273.309M72.1751 273.309V253.918M72.1751 273.309H52.7834M72.1751 273.309L91.5669 273.309" stroke-width="2.5"/>
<path d="M124.959 292.701V273.309M124.959 273.309V253.918M124.959 273.309H105.567M124.959 273.309L144.351 273.309" stroke-width="2.5"/>
<path d="M177.742 292.701V273.309M177.742 273.309V253.918M177.742 273.309H158.35M177.742 273.309L197.134 273.309" stroke-width="2.5"/>
<path d="M230.526 292.701V273.309M230.526 273.309V253.918M230.526 273.309H211.134M230.526 273.309L249.917 273.309" stroke-width="2.5"/>
<path d="M283.309 292.701V273.309M283.309 273.309V253.918M283.309 273.309H263.918M283.309 273.309L302.701 273.309" stroke-width="2.5"/>
</g>
</svg>
