<svg width="323" height="193" viewBox="0 0 323 193" fill="none" xmlns="http://www.w3.org/2000/svg">
<g clip-path="url(#clip0_311_4080)">
<path d="M18.9053 38.2598V19.3545M18.9053 19.3545V0.449219M18.9053 19.3545H7.15256e-07M18.9053 19.3545L37.8105 19.3545" stroke="#2E2E2E" stroke-width="1.5"/>
<path d="M70.5762 90.0005V71.0952M70.5762 71.0952V52.1899M70.5762 71.0952H51.6709M70.5762 71.0952L89.4814 71.0952" stroke="#2E2E2E" stroke-width="1.5"/>
<path d="M18.9053 90.0005V71.0952M18.9053 71.0952V52.1899M18.9053 71.0952H7.15256e-07M18.9053 71.0952L37.8105 71.0952" stroke="#2E2E2E" stroke-width="1.5"/>
<path d="M225.518 193.483V174.578M225.518 174.578V155.672M225.518 174.578H206.612M225.518 174.578L244.423 174.578" stroke="#2E2E2E" stroke-width="1.5"/>
<path d="M278.095 193.483V174.578M278.095 174.578V155.672M278.095 174.578H259.189M278.095 174.578L297 174.578" stroke="#2E2E2E" stroke-width="1.5"/>
<path d="M173.777 141.742V122.836M173.777 122.836V103.931M173.777 122.836H154.872M173.777 122.836L192.682 122.836" stroke="#2E2E2E" stroke-width="1.5"/>
<path d="M225.385 141.742V122.836M225.385 122.836V103.931M225.385 122.836H206.479M225.385 122.836L244.29 122.836" stroke="#2E2E2E" stroke-width="1.5"/>
<path d="M173.777 193.483V174.578M173.777 174.578V155.672M173.777 174.578H154.872M173.777 174.578L192.682 174.578" stroke="#2E2E2E" stroke-width="1.5"/>
<path d="M122.035 141.742V122.836M122.035 122.836V103.931M122.035 122.836H103.129M122.035 122.836L140.94 122.836" stroke="#2E2E2E" stroke-width="1.5"/>
<path d="M122.035 193.483V174.578M122.035 174.578V155.672M122.035 174.578H103.129M122.035 174.578L140.94 174.578" stroke="#2E2E2E" stroke-width="1.5"/>
<path d="M70.5762 141.742V122.836M70.5762 122.836V103.931M70.5762 122.836H51.6709M70.5762 122.836L89.4814 122.836" stroke="#2E2E2E" stroke-width="1.5"/>
<path d="M70.5762 193.483V174.578M70.5762 174.578V155.672M70.5762 174.578H51.6709M70.5762 174.578L89.4814 174.578" stroke="#2E2E2E" stroke-width="1.5"/>
<path d="M18.9053 141.742V122.836M18.9053 122.836V103.931M18.9053 122.836H7.15256e-07M18.9053 122.836L37.8105 122.836" stroke="#2E2E2E" stroke-width="1.5"/>
<path d="M18.9053 193.483V174.578M18.9053 174.578V155.672M18.9053 174.578H7.15256e-07M18.9053 174.578L37.8105 174.578" stroke="#2E2E2E" stroke-width="1.5"/>
</g>
<defs>
<clipPath id="clip0_311_4080">
<rect width="323" height="193" fill="white"/>
</clipPath>
</defs>
</svg>
