<svg xmlns="http://www.w3.org/2000/svg" viewBox="0 0 16 16" fill="none"><path fill-rule="evenodd" clip-rule="evenodd" d="M15.5 4.383v.284c0 .888-.353 1.74-.983 2.366l-2.35 2.359a1.125 1.125 0 0 1-1.584 0L10.5 9.3a.417.417 0 0 1 0-.583l2.867-2.867c.305-.317.473-.743.466-1.183v-.284c0-.444-.176-.87-.491-1.183l-.542-.542a1.667 1.667 0 0 0-1.183-.491h-.284c-.444 0-.87.176-1.183.491L7.283 5.5a.417.417 0 0 1-.583 0l-.092-.092a1.125 1.125 0 0 1 0-1.583l2.359-2.367A3.333 3.333 0 0 1 11.333.5h.284c.884 0 1.732.35 2.358.975l.55.55c.625.626.976 1.474.975 2.358ZM5.208 9.617l4.409-4.409a.417.417 0 0 1 .591 0l.584.584a.417.417 0 0 1 0 .591l-4.409 4.409a.416.416 0 0 1-.591 0l-.584-.584a.417.417 0 0 1 0-.591ZM9.3 10.5a.417.417 0 0 0-.583 0l-2.859 2.842a1.667 1.667 0 0 1-1.191.491h-.284c-.444 0-.87-.176-1.183-.491l-.542-.542a1.667 1.667 0 0 1-.491-1.183v-.284c0-.444.176-.87.491-1.183l2.85-2.867a.417.417 0 0 0 0-.583l-.091-.092a1.125 1.125 0 0 0-1.584 0l-2.35 2.359A3.333 3.333 0 0 0 .5 11.333v.292c.002.881.352 1.726.975 2.35l.55.55a3.333 3.333 0 0 0 2.358.975h.284a3.333 3.333 0 0 0 2.35-.95l2.375-2.375a1.125 1.125 0 0 0 0-1.583L9.3 10.5Z" fill="#000"/></svg>