<svg xmlns="http://www.w3.org/2000/svg" viewBox="0 0 16 16" fill="none"><path fill-rule="evenodd" clip-rule="evenodd" d="M1.75.702c-.69 0-1.25.56-1.25 1.25v12.5c0 .69.56 1.25 1.25 1.25h12.5c.69 0 1.25-.56 1.25-1.25v-12.5c0-.69-.56-1.25-1.25-1.25H1.75ZM5.1 4.038c.005.797-.591 1.288-1.299 1.284A1.252 1.252 0 0 1 2.556 4.04c.004-.704.56-1.27 1.284-1.254.733.016 1.265.554 1.26 1.253Zm3.133 2.299H6.132v7.133h2.22v-.166l-.001-.95c0-.845-.002-1.69.003-2.535a2.44 2.44 0 0 1 .063-.615c.198-.73.856-1.203 1.59-1.087.47.074.782.347.913.791.081.278.117.577.12.866.01.873.01 1.746.008 2.62l-.001.924v.151h2.226v-1.301c0-.941-.001-1.882.002-2.824a5.032 5.032 0 0 0-.15-1.256c-.155-.612-.477-1.118-1.001-1.484-.372-.26-.78-.428-1.235-.446a12.574 12.574 0 0 1-.157-.008c-.233-.013-.47-.026-.693.02-.638.127-1.198.419-1.62.933l-.17.209-.016.02v-.995Zm-5.498 7.136h2.209V6.341h-2.21v7.13Z" fill="#000"/></svg>