<svg width="204" height="161" viewBox="0 0 204 161" fill="none" xmlns="http://www.w3.org/2000/svg">
<g id="Group 90">
<g id="Group 42">
<path id="Vector" d="M16.621 85.9546V101.658M16.621 101.658V117.361M16.621 101.658H0.917806M16.621 101.658L32.3242 101.658" stroke="#FFCD00" stroke-width="1.5"/>
<path id="Vector_2" d="M16.621 129.175V144.878M16.621 144.878V160.582M16.621 144.878H0.917806M16.621 144.878L32.3242 144.878" stroke="#FFCD00" stroke-width="1.5"/>
<path id="Vector_3" d="M188.297 42.9775V58.6807M188.297 58.6807V74.384M188.297 58.6807H172.594M188.297 58.6807L204 58.6807" stroke="#FFCD00" stroke-width="1.5"/>
<path id="Vector_4" d="M188.297 85.7793V101.483M188.297 101.483V117.186M188.297 101.483H172.594M188.297 101.483L204 101.483" stroke="#FFCD00" stroke-width="1.5"/>
<path id="Vector_5" d="M188.297 129V144.703M188.297 144.703V160.406M188.297 144.703H172.594M188.297 144.703L204 144.703" stroke="#FFCD00" stroke-width="1.5"/>
<path id="Vector_6" d="M145.32 42.9775V58.6807M145.32 58.6807V74.384M145.32 58.6807H129.617M145.32 58.6807L161.023 58.6807" stroke="#FFCD00" stroke-width="1.5"/>
<path id="Vector_7" d="M145.32 85.7793V101.483M145.32 101.483V117.186M145.32 101.483H129.617M145.32 101.483L161.023 101.483" stroke="#FFCD00" stroke-width="1.5"/>
<path id="Vector_8" d="M145.32 129V144.703M145.32 144.703V160.406M145.32 144.703H129.617M145.32 144.703L161.023 144.703" stroke="#FFCD00" stroke-width="1.5"/>
<path id="Vector_9" d="M102.342 42.9775V58.6807M102.342 58.6807V74.384M102.342 58.6807H86.6385M102.342 58.6807L118.045 58.6807" stroke="#FFCD00" stroke-width="1.5"/>
<path id="Vector_10" d="M102.342 85.7793V101.483M102.342 101.483V117.186M102.342 101.483H86.6385M102.342 101.483L118.045 101.483" stroke="#FFCD00" stroke-width="1.5"/>
<path id="Vector_11" d="M102.342 129V144.703M102.342 144.703V160.406M102.342 144.703H86.6385M102.342 144.703L118.045 144.703" stroke="#FFCD00" stroke-width="1.5"/>
<path id="Vector_12" d="M59.3652 42.9775V58.6807M59.3652 58.6807V74.384M59.3652 58.6807H43.6619M59.3652 58.6807L75.0684 58.6807" stroke="#FFCD00" stroke-width="1.5"/>
<path id="Vector_13" d="M59.3652 85.7793V101.483M59.3652 101.483V117.186M59.3652 101.483H43.6619M59.3652 101.483L75.0684 101.483" stroke="#FFCD00" stroke-width="1.5"/>
<path id="Vector_14" d="M59.3652 129V144.703M59.3652 144.703V160.406M59.3652 144.703H43.6619M59.3652 144.703L75.0684 144.703" stroke="#FFCD00" stroke-width="1.5"/>
<path id="Vector_15" d="M16.621 42.9775V58.6807M16.621 58.6807V74.384M16.621 58.6807H0.917806M16.621 58.6807L32.3242 58.6807" stroke="#FFCD00" stroke-width="1.5"/>
<path id="Vector_16" d="M188.297 0V15.7032M188.297 15.7032V31.4064M188.297 15.7032H172.594M188.297 15.7032L204 15.7032" stroke="#FFCD00" stroke-width="1.5"/>
<path id="Vector_17" d="M145.32 0V15.7032M145.32 15.7032V31.4064M145.32 15.7032H129.617M145.32 15.7032L161.023 15.7032" stroke="#FFCD00" stroke-width="1.5"/>
</g>
</g>
</svg>
