<svg width="18" height="22" viewBox="0 0 18 22" fill="none" xmlns="http://www.w3.org/2000/svg">
<g clip-path="url(#clip0_205_2202)">
<path d="M18.0001 6.17188V8.97305L16.6877 7.62854H14.6309V6.17188H18.0001Z" fill="#121212"/>
<path d="M11.0148 22H6.97021L8.28275 20.6555V18.3174H9.70298V20.6555L11.0148 22Z" fill="#121212"/>
<path d="M16.6876 1.45685L18 2.80135V0H0V2.80135L1.312 1.45685H8.28277V6.16999H7.34429V6.17202H6.06958V7.62869H12.5629V11.1473H9.703V8.26054H8.28277V11.1473H5.42664V4.5067L6.73863 3.1622H2.69405L4.00658 4.5067V6.17202H1.84292C1.57836 6.17202 1.32046 6.2305 1.0849 6.33934C0.84861 6.44819 0.635917 6.60758 0.460684 6.81051C0.164067 7.15549 0 7.59917 0 8.05964V10.545C0 10.9368 0.119583 11.3187 0.340741 11.6386L0.460144 11.8101C0.805927 12.3083 1.36566 12.604 1.96232 12.604H4.00658V16.1999H1.31452L0 14.8534V17.6566H4.00658V19.3117L2.69405 20.6555H6.73863L5.42664 19.3117V12.604H12.5629V16.1966H9.703V13.238H8.28277V16.1966H6.06958V17.6566H10.6408V17.6573H12.5629V19.3117L11.2504 20.6555H15.2982L13.9864 19.3117V12.604H15.0594C15.5673 12.604 16.5799 12.604 16.5799 13.5452V15.2553C16.5799 16.1966 15.5673 16.1966 15.0594 16.1966H14.6302V17.6573H15.9086C16.2471 17.6573 16.576 17.5734 16.8686 17.418C17.1613 17.2634 17.4187 17.0374 17.6148 16.7539C17.8655 16.3914 18 15.9586 18 15.5142V13.0377C18 12.8076 17.9595 12.5818 17.8813 12.3701C17.8039 12.159 17.6884 11.962 17.5408 11.7893C17.1903 11.3812 16.6857 11.1473 16.1553 11.1473H13.9864V4.5067L15.2989 3.1622H11.2504L12.5629 4.5067V6.17202H10.6408V6.16999H9.703V1.45685H16.6876ZM4.00658 11.1473H2.93754C2.43021 11.1473 1.42023 11.1473 1.42023 10.2061V8.56991C1.42023 7.62869 2.43021 7.62869 2.93754 7.62869H4.00658V11.1473Z" fill="#121212"/>
</g>
<defs>
<clipPath id="clip0_205_2202">
<rect width="18" height="22" fill="white"/>
</clipPath>
</defs>
</svg>
